<?xml version="1.0" encoding="utf-8"?>
<!-- Generator: Adobe Illustrator 19.1.0, SVG Export Plug-In . SVG Version: 6.00 Build 0)  -->
<svg version="1.1" id="Layer_1" xmlns="http://www.w3.org/2000/svg" xmlns:xlink="http://www.w3.org/1999/xlink" x="0px" y="0px"
	 viewBox="215 -71 446.1 159" style="enable-background:new 215 -71 446.1 159;" xml:space="preserve">
<style type="text/css">
	.st0{clip-path:url(#SVGID_2_);}
	.st1{fill:#FFD200;}
</style>
<g>
	<g>
		<path d="M359.1,42.4h0.5c0.4,2.1,1.5,3.9,3.7,3.9c1.5,0,2.8-0.9,2.8-2.6c0-1.9-1.6-2.6-3-3.2c-1.8-0.7-3.7-1.7-3.7-4.1
			c0-2.4,1.8-3.7,3.9-3.7c1.1,0,2.1,0.4,3,1.1l0.5-0.8h0.2l0.1,3.6h-0.5c-0.5-1.7-1.4-3.3-3.3-3.3c-1.3,0-2.3,0.9-2.3,2.2
			c0,1.6,1.4,2.2,2.6,2.7c2.1,0.9,4.4,2,4.4,4.7c0,2.7-2.4,4-4.7,4c-1.3,0-2.4-0.4-3.5-1.2l-0.5,0.9h-0.2V42.4L359.1,42.4z
			 M388.1,36.1l-0.2-3.2h-12.2v3.2h0.5c0.1-2.5,1-2.6,3-2.6c0.8,0,1.7-0.1,1.7,0.6v9.8c0,1.5-0.3,2.1-2.2,2.2v0.5
			c1.1,0,2.1-0.1,3.1-0.1c1.1,0,2.2,0.1,3.3,0.1v-0.5c-1.9-0.1-2.2-0.7-2.2-2.2v-9.8c0-0.7,1.2-0.6,1.9-0.6c1.9,0,2.6,0.5,2.7,2.6
			H388.1L388.1,36.1z M396.5,42.1c-0.3,0.8-0.9,2.3-0.9,3.1c0,0.9,1,0.8,1.6,0.9v0.5c-0.7,0-1.4-0.1-2.2-0.1c-0.7,0-1.4,0.1-2.1,0.1
			v-0.5c1.1-0.1,1.5-0.5,1.9-1.5c0.6-1.3,1.1-2.6,1.6-4l3-8.2h0.7l4,10.5c0.2,0.5,0.7,1.8,1,2.3c0.4,0.6,1,0.7,1.7,0.8v0.5
			c-0.9,0-1.9-0.1-2.8-0.1c-1,0-1.9,0.1-2.9,0.1V46c0.6,0,1.5,0,1.5-0.8c0-0.5-0.2-1.1-0.4-1.6l-0.8-2.1h-4.9V42.1L396.5,42.1
			L396.5,42.1z M401.3,40.9l-2.2-5.9l-2.2,5.9H401.3L401.3,40.9z M424.6,36.1l-0.2-3.2h-12.2v3.2h0.5c0.1-2.5,1-2.6,3-2.6
			c0.8,0,1.7-0.1,1.7,0.6v9.8c0,1.5-0.3,2.1-2.2,2.2v0.5c1.1,0,2.1-0.1,3.1-0.1c1.1,0,2.2,0.1,3.3,0.1v-0.5
			c-1.9-0.1-2.2-0.7-2.2-2.2v-9.8c0-0.7,1.2-0.6,1.9-0.6c1.9,0,2.6,0.5,2.7,2.6H424.6L424.6,36.1z M434.3,36.9c0-0.7,0-2.2-0.2-2.8
			c-0.3-0.7-1.1-0.7-1.7-0.7v-0.6h9.8v3.1h-0.5c-0.4-2.4-1.4-2.6-3.5-2.6h-1.4c-0.6,0-0.5-0.1-0.5,0.9v4.9c2.7,0.1,3.1-1.1,3.2-2.6
			h0.5c0,0.9,0,1.9-0.1,2.8c0,0.9,0.1,1.7,0.1,2.6h-0.5c-0.3-2.2-1.3-2.3-3.2-2.3V43c0,0.6,0,1.6,0.4,2.1c0.5,0.7,1.7,0.8,2.5,0.7
			c2.1,0,3.4-0.3,3.7-2.8h0.5l-0.2,3.3h-10.8v-0.5c0.6,0,1.4,0,1.7-0.7c0.2-0.6,0.2-2.1,0.2-2.8V36.9L434.3,36.9L434.3,36.9z
			 M473,41.1v-3.8c0-0.8,0-2.4,0.3-3.2c0.3-0.7,1-0.7,1.6-0.7v-0.5c-0.8,0-1.5,0.1-2.2,0.1c-0.8,0-1.5-0.1-2.3-0.1v0.5
			c0.8,0,1.6,0.1,1.8,1c0.2,0.6,0.2,2.2,0.2,3v4.5c0,2.8-1.4,4.3-4.1,4.3c-2.7,0-3.7-1.5-3.7-4.2v-5.1c0-0.7,0-2.2,0.2-2.8
			c0.2-0.7,1.1-0.7,1.7-0.7v-0.5c-1,0-2,0.1-3,0.1c-0.9,0-1.9-0.1-2.8-0.1v0.5c0.6,0,1.4,0,1.7,0.7c0.2,0.6,0.2,2.1,0.2,2.8v5
			c0,3.8,1.7,5.1,5.3,5.1C471.6,46.9,473,44.9,473,41.1L473,41.1L473,41.1z M485,34.6c-0.6-0.9-1.1-1.2-2.2-1.2v-0.5
			c0.6,0,1.2,0.1,1.9,0.1c0.5,0,1-0.1,1.6-0.1l8.4,10.7v-5.8c0-0.9,0-2.3-0.2-3.2c-0.2-1.2-0.8-1.1-1.8-1.2v-0.5
			c0.7,0,1.4,0.1,2.2,0.1c0.7,0,1.4-0.1,2.1-0.1v0.5c-0.7,0.1-1.2,0-1.5,0.9c-0.2,0.7-0.2,2.8-0.2,3.6v8.9h-0.6
			c-0.4-0.6-0.9-1.1-1.3-1.7l-7.8-9.8v7c0,0.8,0,2.3,0.3,3c0.3,0.8,1,0.8,1.7,0.9v0.5c-0.8,0-1.5-0.1-2.3-0.1
			c-0.7,0-1.5,0.1-2.2,0.1v-0.5c0.8-0.1,1.5-0.1,1.7-1c0.2-0.7,0.2-2.1,0.2-2.9V34.6L485,34.6L485,34.6z M507.2,36.8v5.9
			c0,0.7,0,2.2-0.2,2.8c-0.3,0.7-1.1,0.7-1.7,0.7v0.5c1,0,2-0.1,3-0.1s1.9,0.1,2.9,0.1v-0.5c-0.6,0-1.4,0-1.7-0.7
			c-0.2-0.6-0.2-2.1-0.2-2.8v-5.9c0-0.7,0-2.2,0.2-2.8c0.3-0.7,1.1-0.7,1.7-0.7v-0.5c-1,0-2,0.1-3,0.1c-0.9,0-1.9-0.1-2.8-0.1v0.5
			c0.6,0,1.4,0,1.7,0.7C507.2,34.6,507.2,36.2,507.2,36.8L507.2,36.8L507.2,36.8z M520.8,35.9c-0.5-1.3-0.7-2.5-2.4-2.6v-0.5
			c0.9,0,1.9,0.1,2.8,0.1c1,0,1.9-0.1,2.9-0.1v0.5c-0.6,0-1.5,0-1.5,0.8c0,0.7,1.2,3.9,1.5,4.8l2,5.3l1.9-4.8c0.4-1,1.5-4.2,1.5-5.1
			c0-1-0.8-1-1.5-1v-0.5c0.8,0,1.5,0.1,2.3,0.1c0.7,0,1.4-0.1,2.1-0.1v0.5c-1.7,0-2.1,1.7-2.6,3.2l-4,10.5h-0.6L520.8,35.9
			L520.8,35.9L520.8,35.9z M541.5,36.9v5.7c0,0.7,0,2.2-0.2,2.8c-0.3,0.7-1.1,0.7-1.7,0.7v0.5h10.8l0.2-3.3h-0.5
			c-0.3,2.5-1.6,2.7-3.7,2.8c-0.8,0-2,0-2.5-0.7c-0.4-0.5-0.4-1.5-0.4-2.1v-3.4c1.9,0,2.9,0.1,3.2,2.3h0.5c0-0.9,0-1.7-0.1-2.6
			c0-0.9,0.1-1.9,0.1-2.8h-0.5c-0.1,1.5-0.5,2.7-3.2,2.6v-4.9c0-0.9-0.1-0.9,0.5-0.9h1.4c2.1,0,3.1,0.1,3.5,2.6h0.5v-3.1h-9.8v0.6
			c0.6,0,1.4,0,1.7,0.7C541.5,34.7,541.5,36.2,541.5,36.9L541.5,36.9L541.5,36.9z M570.2,44.9c0.6,0.8,0.9,1.1,1.9,1.2v0.5
			c-0.6,0-1.2-0.1-1.8-0.1c-0.5,0-1,0.1-1.5,0.1l-0.9-1.2l-3.3-4.3c-0.7-0.8-0.6-0.9-1.6-0.9v2.5c0,0.7,0,2.2,0.2,2.8
			c0.2,0.7,1,0.7,1.7,0.7v0.5c-0.9,0-1.8-0.1-2.8-0.1s-2,0.1-3,0.1v-0.5c0.6,0,1.5,0,1.7-0.7c0.2-0.6,0.2-2.1,0.2-2.8v-5.9
			c0-0.7,0-2.2-0.2-2.8c-0.2-0.7-1-0.7-1.7-0.7v-0.5c1.1,0,2.3,0.1,3.4,0.1c0.8,0,1.7-0.1,2.5-0.1c2.3,0,4.5,0.5,4.5,3.4
			c0,2.2-1.6,3.4-3.6,3.6L570.2,44.9L570.2,44.9L570.2,44.9z M563,39.7c2.5,0,4.3-0.1,4.3-3.1c0-1.8-1-3.1-2.8-3.1
			c-0.2,0-1.1-0.1-1.3,0c-0.3,0.1-0.2,0.5-0.2,0.7V39.7L563,39.7L563,39.7z M579.8,42.4v4h0.2l0.5-0.9c1.1,0.8,2.1,1.2,3.5,1.2
			c2.3,0,4.7-1.3,4.7-4s-2.3-3.8-4.4-4.7c-1.2-0.5-2.6-1.1-2.6-2.7c0-1.3,1-2.2,2.3-2.2c1.9,0,2.8,1.6,3.3,3.3h0.5l-0.1-3.6h-0.2
			l-0.5,0.8c-0.9-0.7-1.9-1.1-3-1.1c-2.2,0-3.9,1.4-3.9,3.7c0,2.4,1.9,3.4,3.7,4.1c1.4,0.6,3,1.3,3,3.2c0,1.7-1.3,2.6-2.8,2.6
			c-2.3,0-3.3-1.8-3.7-3.9h-0.5V42.4z M598.6,36.8c0-0.7,0-2.2-0.2-2.8c-0.3-0.7-1.1-0.7-1.7-0.7v-0.5c1,0,1.9,0.1,2.9,0.1
			s2-0.1,3-0.1v0.5c-0.6,0-1.4,0-1.7,0.7c-0.2,0.6-0.2,2.1-0.2,2.8v5.9c0,0.7,0,2.2,0.2,2.8c0.3,0.7,1.1,0.7,1.7,0.7v0.5
			c-0.9,0-1.9-0.1-2.8-0.1c-1,0-2,0.1-3,0.1v-0.5c0.6,0,1.4,0,1.7-0.7c0.2-0.6,0.2-2.1,0.2-2.8v-5.9H598.6L598.6,36.8z M622.9,36.1
			l-0.2-3.2h-12.2v3.2h0.5c0.1-2.5,1-2.6,3-2.6c0.8,0,1.7-0.1,1.7,0.6v9.8c0,1.5-0.3,2.1-2.2,2.2v0.5c1.1,0,2.1-0.1,3.1-0.1
			c1.1,0,2.2,0.1,3.3,0.1v-0.5c-1.9-0.1-2.2-0.7-2.2-2.2v-9.8c0-0.7,1.2-0.6,1.9-0.6c1.9,0,2.6,0.5,2.7,2.6H622.9L622.9,36.1z
			 M637.2,43.9c0,2,0.1,2.1,2,2.2v0.5c-1,0-2-0.1-3-0.1s-2,0.1-3,0.1v-0.5c1.9-0.2,2-0.3,2-2.2v-2.6l-1.8-3.3
			c-0.2-0.4-1.7-3.6-2.4-4.3c-0.3-0.4-0.7-0.3-1.1-0.4v-0.5c0.9,0,1.8,0.1,2.7,0.1c0.9,0,1.9-0.1,2.8-0.1v0.5c-0.4,0-1.5,0-1.5,0.7
			c0,0.5,0.3,1,0.5,1.5l2.6,5l1.3-2.1c0.4-0.7,2-3.4,2-4.1c0-0.8-0.9-0.8-1.4-0.9v-0.5c0.7,0,1.4,0.1,2.1,0.1s1.3-0.1,1.9-0.1v0.5
			c-1.2,0.1-1.6,0.9-2.1,1.8l-3.4,5.9v2.8H637.2L637.2,43.9z M234.9,1l0.7-2.3h20.3l3.2,9.7c0.7,2.2,1.6,5,1.6,7.3
			c0,3.7-4,3.5-6.3,3.6v2.2c3.9-0.1,8-0.3,11.9-0.4c3.9,0.1,7.8,0.3,11.7,0.4v-2.2c-2.8-0.4-5.3-0.8-7.1-3.5
			c-1.5-2.2-3.3-7.9-4.3-10.3l-16.5-47.7h-2.8L234.7-5.4c-2.3,6-4.5,11.9-6.8,17.9c-1.6,4.6-3.5,6.1-7.9,6.7v2.2
			c2.9-0.1,5.7-0.3,8.6-0.4c3,0.1,6,0.3,9,0.4v-2.2c-2.5-0.3-6.7,0-6.7-4C230.9,11.5,233.6,4.6,234.9,1L234.9,1L234.9,1z M254.9-4.3
			h-18.2l9.1-26.4L254.9-4.3L254.9-4.3z M287.6-12.3c3.2-5,7-7.8,12.3-7.8c10.9,0,18.3,9.3,18.3,21.5c0,11.4-7.4,21-17.8,21
			c-4.9,0-8.3-1.7-11.8-5.3v18.2c0,6.8-0.6,9.2,6.3,9.6v1.9c-3-0.1-6.1-0.3-9.1-0.4c-3.3,0.1-6.6,0.3-9.9,0.4v-1.9
			c6.2-0.5,5.7-2.8,5.7-9V-0.9c0-2.6,0-9.2-0.4-11.3c-0.7-3.4-2.9-3-5.5-3v-1.9c4.1-0.7,8.1-1.9,11.9-2.9V-12.3L287.6-12.3
			L287.6-12.3z M288.6,5.4c0,3.2,0,7.8,1.8,10.2c1.9,2.5,5.1,3.8,8.1,3.8c8.9,0,11.5-9.8,11.5-18.3s-2.4-18.2-11.3-18.2
			c-3.5,0-6.6,2-8.3,5.3c-1.7,3.4-1.7,6.7-1.7,10.5v6.7H288.6L288.6,5.4z M330.2-12.3v-7.8c-3.8,1-7.8,2.3-11.9,2.9v1.9
			c2.6,0,4.9-0.4,5.5,3c0.4,2.2,0.4,8.7,0.4,11.3v36.8c0,6.2,0.5,8.5-5.7,9v1.9c3.3-0.1,6.6-0.3,9.9-0.4c3,0.1,6.1,0.3,9.1,0.4v-1.9
			c-6.9-0.4-6.3-2.8-6.3-9.6V17.1c3.5,3.7,7,5.3,11.8,5.3c10.4,0,17.8-9.6,17.8-21c0-12.2-7.4-21.5-18.3-21.5
			C337.2-20.1,333.4-17.3,330.2-12.3L330.2-12.3L330.2-12.3z M331.2,5.4v-6.7c0-3.8,0-7.1,1.7-10.5c1.7-3.4,4.9-5.3,8.3-5.3
			c9,0,11.3,9.7,11.3,18.2c0,8.4-2.6,18.3-11.5,18.3c-3,0-6.2-1.2-8.1-3.8C331.2,13.2,331.2,8.6,331.2,5.4L331.2,5.4L331.2,5.4z
			 M384.7-4.3c0.8-0.5,0.7-1.7,0.7-2.7c0-6.4-0.5-10.9-7.2-10.9c-4.1,0-7.5,0.4-7.7,5.3c-0.2,2.1-1.2,4.1-3.3,4.1
			c-1.8,0-3.1-1.3-3.1-3.4c0-6.9,10.9-8.3,15.1-8.3c9.1,0,13.3,2.7,13.3,13.5V8.8c0,2.3-0.3,9.3,2.9,9.3c1.6,0,2.5-1.7,3.4-3
			l1.6,0.9c-1.3,3.1-4.4,6.3-7.4,6.3c-3.4,0-6.2-2.9-7.1-6.7c-3.9,3.6-8.6,6.7-13.7,6.7c-4.4,0-8.6-3-8.6-8.3
			c0-7.9,7.8-11.3,13.1-14L384.7-4.3L384.7-4.3L384.7-4.3z M385.5-2c-4.9,2.7-14.3,6.4-14.3,13.9c0,3.5,1.9,6.8,5.3,6.8
			c3.2,0,6.7-2.8,9-5.3V-2L385.5-2L385.5-2z M414.8,10v-52.8l-13.2,3v1.9c1.9,0.3,4.4,0.1,5.3,2.4c0.8,2,0.8,7.7,0.8,10v36
			c0,6.2,0.4,8.4-5.8,8.9v1.9c3-0.1,6-0.3,9-0.4c3.1,0.1,6.2,0.3,9.5,0.4v-1.9C414.1,19,415,16.2,414.8,10L414.8,10L414.8,10z
			 M444.5-4.3c0.8-0.5,0.7-1.7,0.7-2.7c0-6.4-0.5-10.9-7.2-10.9c-4.1,0-7.5,0.4-7.7,5.3c-0.2,2.1-1.2,4.1-3.3,4.1
			c-1.8,0-3.1-1.3-3.1-3.4c0-6.9,10.9-8.3,15.1-8.3c9.1,0,13.3,2.7,13.3,13.5V8.8c0,2.3-0.3,9.3,2.9,9.3c1.6,0,2.5-1.7,3.4-3
			l1.6,0.9c-1.3,3.1-4.4,6.3-7.4,6.3c-3.4,0-6.2-2.9-7.1-6.7c-3.9,3.6-8.6,6.7-13.7,6.7c-4.4,0-8.6-3-8.6-8.3
			c0-7.9,7.8-11.3,13.1-14L444.5-4.3L444.5-4.3L444.5-4.3z M445.2-2c-4.9,2.7-14.3,6.4-14.3,13.9c0,3.5,1.9,6.8,5.3,6.8
			c3.2,0,6.7-2.8,9-5.3V-2L445.2-2L445.2-2z M583.1-4.3L575,0.2c-5.3,2.7-13.1,6.1-13.1,14c0,5.3,4.2,8.3,8.6,8.3
			c5.1,0,9.9-3.1,13.7-6.7c0.8,3.8,3.7,6.7,7.1,6.7c3,0,6.1-3.2,7.4-6.3l-1.6-0.9c-0.9,1.3-1.7,3-3.4,3c-3.2,0-2.9-6.9-2.9-9.3V-6.6
			c0-10.8-4.2-13.5-13.3-13.5c-4.2,0-15.1,1.3-15.1,8.3c0,2.1,1.3,3.4,3.1,3.4c2.1,0,3.1-2.1,3.3-4.1c0.2-5,3.6-5.3,7.7-5.3
			c6.7,0,7.2,4.5,7.2,10.9C583.8-6,584-4.8,583.1-4.3L583.1-4.3L583.1-4.3z M583.9-2v15.3c-2.3,2.5-5.8,5.3-9,5.3
			c-3.4,0-5.3-3.3-5.3-6.8C569.6,4.4,578.9,0.7,583.9-2L583.9-2L583.9-2z M553.1-20.1V10c0.2,6.2-0.7,9,5.8,9.5v1.9
			c-2.8-0.1-5.8-0.3-8.8-0.4c-3.2,0.1-6.4,0.3-9.6,0.4v-1.9c6.1-0.5,5.6-2.7,5.7-8.9V-2.8c0-1.8,0-9-0.3-10.4
			c-0.6-2.3-4-2.2-5.7-2.1v-1.9L553.1-20.1L553.1-20.1z M492.5,15.2l-1.7-1.7c-2.6,3.5-6.2,5.9-10.4,5.9c-9.3,0-11.8-9.4-11.8-18.4
			c0-8.3,2.7-18.6,11.6-18.6c3,0,3.7,0.8,4.7,3.6c0.6,1.8,1.6,3.7,3.6,3.7c1.5,0,2.7-1.8,2.7-3.5c0-5.2-7.5-6.3-10.7-6.3
			c-11.4,0-20.1,9.5-20.1,22.6c0,11.6,7.5,19.9,17.7,19.9C483.4,22.4,489,20.1,492.5,15.2L492.5,15.2L492.5,15.2z M506.3-12
			c3-5.1,7.6-8.1,12.8-8.1c7.8,0,12.3,4.2,12.3,13.1v17c0,6.2-0.7,9,5.7,9.5v1.9c-3.2-0.1-6.3-0.3-9.5-0.4c-3,0.1-6,0.3-8.8,0.4
			v-1.9c6.2-0.5,5.7-2.7,5.7-8.9V-3.3c0-6-0.5-13.8-7.5-13.8c-3.5,0-7.6,2.8-9.2,6.6c-1.3,3-1.5,6.8-1.5,10.2V10
			c0,6.2-0.7,9,5.8,9.5v1.9c-3-0.1-6-0.3-9-0.4c-3.1,0.1-6.3,0.3-9.5,0.4v-1.9c6.2-0.5,5.8-2.7,5.8-8.9v-36c0-2.3,0-8.1-0.8-10
			c-1-2.3-3.5-2.2-5.3-2.4v-1.9l13.2-3V-12H506.3L506.3-12z M639,10V-7.1c0-8.9-4.4-12.9-12.2-12.9c-5.8,0-10.3,2.7-13.2,8.5
			l-1.1-8.5c-4,0.8-7.1,2.3-11.3,2.9v1.9c2.6,0,4.8-0.4,5.5,3c0.4,2.2,0.4,8.7,0.4,11.3v11.5c0,6.2,0.4,8.4-5.8,8.9v1.9
			c3.2-0.1,6.3-0.3,9.5-0.4c3,0.1,6,0.3,9,0.4v-1.9c-6.5-0.5-5.8-3.3-5.8-9.5V-4.5c0-6.8,4.1-12.6,10.5-12.6c7.8,0,7.6,9.2,7.6,15.7
			v12c0,6.2,0.4,8.4-5.8,8.9v1.9c3.2-0.1,6.3-0.3,9.5-0.4c3,0.1,6,0.3,9,0.4v-1.9C638.3,19,639,16.2,639,10L639,10L639,10z"/>
	</g>
	<g>
		<g>
			<defs>
				<rect id="SVGID_1_" x="642.9" y="41.5" width="5.1" height="5.2"/>
			</defs>
			<clipPath id="SVGID_2_">
				<use xlink:href="#SVGID_1_"  style="overflow:visible;"/>
			</clipPath>
			<path class="st0" d="M645,42.8c0.1,0,0.2-0.1,0.3-0.1c0.2,0,0.4,0.1,0.5,0.2c0.1,0.1,0.2,0.3,0.2,0.5c0,0.2-0.1,0.4-0.2,0.5
				c-0.2,0.1-0.4,0.2-0.7,0.2H645V42.8z M644.1,42.7c0.1,0,0.2,0,0.2,0.1l0.1,0.1c0,0,0,0.2,0,0.3v1.9c0,0.2,0,0.3,0,0.3
				s0,0.1-0.1,0.1c-0.1,0-0.1,0-0.3,0v0.1h1.3v-0.1c-0.2,0-0.3,0-0.3-0.1c0,0-0.1-0.1-0.1-0.2v-1.1h0.3l1.1,1.5h0.7v-0.1
				c-0.1,0-0.2,0-0.2-0.1c-0.1,0-0.1-0.1-0.2-0.2l-0.7-1.1c0.3-0.1,0.5-0.2,0.6-0.3c0.1-0.1,0.2-0.3,0.2-0.5s-0.1-0.4-0.3-0.6
				c-0.2-0.2-0.5-0.2-0.8-0.2h-1.4v0.2H644.1z M646.6,42.1c0.4,0.2,0.6,0.5,0.9,0.9c0.2,0.4,0.3,0.8,0.3,1.2c0,0.7-0.2,1.2-0.7,1.7
				s-1,0.7-1.6,0.7s-1.2-0.2-1.6-0.7c-0.5-0.5-0.7-1-0.7-1.7s0.2-1.2,0.7-1.7s1-0.7,1.6-0.7C645.9,41.8,646.2,41.9,646.6,42.1
				 M643.7,42.3c-0.5,0.5-0.7,1.1-0.7,1.8c0,0.7,0.2,1.3,0.7,1.8s1.1,0.8,1.8,0.8s1.3-0.3,1.8-0.8s0.7-1.1,0.7-1.8
				c0-0.5-0.1-0.9-0.3-1.3c-0.2-0.4-0.5-0.7-0.9-1c-0.4-0.2-0.8-0.3-1.3-0.3C644.8,41.5,644.2,41.8,643.7,42.3"/>
		</g>
	</g>
	<path class="st1" d="M576.8-64.5c0.2-0.9-0.5-0.2-0.5-0.2c-1.4,1.7-5.5,4.4-7.8,5.4c-1.6,0.7-2.1,2.2-5.2,5.9c0,0-0.4,0.8-0.8,0.1
		c-0.6-0.9-3.6-5.1-8-7.2c-5.2-2.5-4.7-4.7-9.4-4.2c0,0-2.8,0.3-3.7,0.3c-1,0-0.1,1.9,2.2,3.2c0,0-0.5,0-0.7,0.1
		c-0.3,0-1.3,0-0.5,1.1c0.7,1.1,2.6,3.2,3.4,3.8l-0.8-0.2c0,0-0.9,0-0.1,1c0.9,1.1,2.9,2.7,3.9,3.3c0,0,0,0.2-0.7,0.1
		c-0.3,0-1.2,0.1-0.3,0.9c0,0,0.3,0.5,1.3,0.9c0,0-1.6,0.1,0,1.5c0,0,0.7,0.5,1.6,1.1c1.1,0.8,2.4,1.8,2.7,2.3c0,0-4.5,3.8-7.7,6.2
		c-1.5,1.2-6.5,3.4-8.4,4c0,0-1.7,0.4-0.4,1.4c0,0,0.5,0.1,0.9,0.1c0.4,0-0.3,0.4-0.4,1c-0.1,0.5-0.2,1.8,2.4,1.2
		c3.1-0.7,0.4-0.2,1.5,0.9c0.7,0.6,3.7-1.4,4.7-2c0,0,0.5-0.2,1.8-1.4c2.1-1.9,4.8-4.8,5.6-6.3c0,0,6.1,0.2,10.4-3.2
		c2.5-2,3.7-3.3,4.4-4.2c0.5-0.6,0.6-1,0.8-1.2c0,0,2.9-0.9,2.9-3.1c0-0.3,1.2-0.6,1.2-0.6s0.7-0.4-0.3-0.5c-1,0-1.1-0.1-1.1-0.1
		s-0.7-1.1-2.5-0.9c-1.7,0.1-1.4,0.3-2.5,0.5c0,0,2-2.2,2.7-3.7c0.2-0.4,0.2-0.2,0.8-0.6c2.4-1.2,3.5-1.8,4.4-3.1
		c0.5-0.8-0.2-0.8-0.4-0.7c0,0,2.6-1.3,1.8-1.7C576.4-63.6,576.8-64.5,576.8-64.5L576.8-64.5z"/>
</g>
</svg>
